<svg id="Layer_1" data-name="Layer 1" xmlns="http://www.w3.org/2000/svg" viewBox="0 0 133.13 57.92"><defs><style>.cls-1{fill:#e30613;}.cls-2{fill:#00497b;}</style></defs><path class="cls-1" d="M345.18,302.48a4.66,4.66,0,0,1-1.39-3.41,4.71,4.71,0,0,1,1.37-3.38,4.54,4.54,0,0,1,3.35-1.44,4.48,4.48,0,0,1,3.32,1.43,4.82,4.82,0,0,1,0,6.8,4.5,4.5,0,0,1-3.33,1.43A4.46,4.46,0,0,1,345.18,302.48Zm19,10.89v-2.93a5,5,0,0,0-5-5H337.84a5,5,0,0,0-5,5v11h23.81v1.67H332.82v2.93a5,5,0,0,0,5,5h21.34a5,5,0,0,0,5-5V315H340.4v-1.67Z" transform="translate(-231.08 -294.25)"/><path class="cls-2" d="M231.08,307.71c0-1.53.68-2.29,2.2-2.29h14.05v3.17a2,2,0,0,1-2.29,2.25H237.5v4.61h8.43v5.22H237.5v5h10v3.17a2,2,0,0,1-2.29,2.24h-12c-1.52,0-2.2-.76-2.2-2.28Zm19.06,0c0-1.53.68-2.29,2.21-2.29h8.35c5.86,0,9.23,2.69,9.23,7.74,0,3.5-1.33,5.74-4.5,7l5,9.79a2.83,2.83,0,0,1,.36,1.12h-5.54c-1.16,0-1.64,0-2.21-1.16l-4.49-9.27h-2V331.1h-6.42Zm6.42,3.13v4.61h3.66c1.84,0,3.29-.24,3.29-2.29s-1.45-2.32-3.29-2.32Zm23.88-5.62c5.34,0,8.11.6,8.11,3.09v2.53h-7.3c-2,0-2.53.52-2.53,1.56,0,3.09,11.16,2.45,11.16,11.12,0,4.13-2.37,7.78-9.6,7.78-4.73,0-8.46-.76-8.46-3.09v-2.52h8.62c1.77,0,2.61-.57,2.61-1.81,0-3.37-11.11-2.73-11.11-11.64C271.94,308.31,274.55,305.22,280.44,305.22Zm27.1.2v3.25c0,1.48-.77,2.17-2.25,2.17h-3.17V331.1H295.7V310.84h-5.42v-3.25c0-1.49.76-2.17,2.25-2.17Zm2,2.29c0-1.53.68-2.29,2.2-2.29H325.8v3.17a2,2,0,0,1-2.29,2.25H316v4.61h8.43v5.22H316v5h10v3.17a2,2,0,0,1-2.29,2.24h-12c-1.52,0-2.2-.76-2.2-2.28Z" transform="translate(-231.08 -294.25)"/><path class="cls-2" d="M231.24,337.19c0-.63.22-1,.82-1h3.56c3.15,0,4.83,1.93,4.83,6.43s-1.68,6.42-4.83,6.42h-3.56c-.6,0-.82-.34-.82-1Zm1.89.7v9.51h2.45c1.78,0,2.9-1.06,2.9-4.75s-1.12-4.76-2.9-4.76Z" transform="translate(-231.08 -294.25)"/><path class="cls-2" d="M244.15,337.91h-1.81v-1.15c0-.6.22-.94.83-.94h1ZM242.34,339h1c.62,0,.84.34.84,1v9.09h-1.81Z" transform="translate(-231.08 -294.25)"/><path class="cls-2" d="M254,348c0,2.37-1,4.14-4.18,4.14-2.23,0-3.11-.18-3.11-1v-.46h2.87c1.63,0,2.61-.52,2.61-2.79v-.34a3.51,3.51,0,0,1-2.63,1.27c-2.37,0-3.45-1.83-3.45-5s1.08-5,3.45-5a3.47,3.47,0,0,1,2.63,1.27v-.32c0-.51.26-.85.9-.85H254Zm-3.82-.64a3,3,0,0,0,2-.84v-5.34a3,3,0,0,0-2-.84c-1.58,0-2.21,1.26-2.21,3.53S248.55,347.4,250.13,347.4Z" transform="translate(-231.08 -294.25)"/><path class="cls-2" d="M258.33,337.91h-1.81v-1.15c0-.6.22-.94.82-.94h1ZM256.52,339h1c.63,0,.85.34.85,1v9.09h-1.81Z" transform="translate(-231.08 -294.25)"/><path class="cls-2" d="M263,339h2.17v1.35H263v6.12c0,.86.1,1.18.75,1.18h1.42v.46c0,.79-.72,1-1.72,1-2.05,0-2.25-1.13-2.25-2.61v-6.12h-1.27v-1l1.27-.34.64-1.6c.2-.42.34-.6.7-.6H263Z" transform="translate(-231.08 -294.25)"/><path class="cls-2" d="M272.76,349.07a.77.77,0,0,1-.88-.85v-.32a3.78,3.78,0,0,1-2.81,1.27,2.67,2.67,0,0,1-2.93-2.79c0-2.53,2.65-3.17,5.74-3.31v-.95c0-1.36-.92-1.74-2.15-1.74h-2.89v-.52c0-.89,1-.93,3.15-.93,2.31,0,3.67,1,3.67,3.11v7Zm-.88-4.86c-2.75.06-3.85.66-3.85,2,0,1.1.78,1.5,1.8,1.5a3.14,3.14,0,0,0,2.05-.82Z" transform="translate(-231.08 -294.25)"/><path class="cls-2" d="M277.9,349.07h-1.8V336.76c0-.6.22-.94.82-.94h1Z" transform="translate(-231.08 -294.25)"/></svg>