<svg width="512" height="512" xmlns="http://www.w3.org/2000/svg">

 <g>
  <title>Layer 1</title>
  <ellipse fill="#3a648c" ry="238" rx="237" id="svg_2" cy="262" cx="256" stroke="null"/>
  <path stroke="null" id="svg_1" d="m40.40785,332.19998l118.3584,0c-2.85519,-24.07031 -4.36626,-49.67072 -4.36626,-76.2c0,-26.52927 1.51106,-52.12965 4.36626,-76.19998l-118.3584,0c-8.42416,23.83385 -13.00785,49.48148 -13.00785,76.19998c0,26.71858 4.58368,52.36617 13.00785,76.2l0,0zm10.75436,25.40002c30.23564,60.84164 86.78061,106.30203 154.74926,121.49557c-19.78966,-26.93719 -34.94662,-69.7522 -43.54222,-121.49557l-111.20704,0l0,0zm420.42998,-25.40002c8.4241,-23.83383 13.00778,-49.48141 13.00778,-76.2c0,-26.71851 -4.58368,-52.36613 -13.00778,-76.19998l-118.35846,0c2.85519,24.07033 4.36624,49.67072 4.36624,76.19998c0,26.52928 -1.51105,52.12968 -4.36624,76.2l118.35846,0l0,0zm-10.75439,25.40002l-111.20706,0c-8.59561,51.74338 -23.75253,94.55838 -43.54221,121.49557c67.96866,-15.19354 124.51358,-60.65393 154.74927,-121.49557l0,0zm-276.35405,-25.40002l143.03252,0c3.00784,-23.81528 4.68375,-49.4581 4.68375,-76.2c0,-26.74185 -1.6759,-52.3847 -4.68375,-76.19998l-143.03252,0c-3.00786,23.81528 -4.68376,49.45813 -4.68376,76.19998c0,26.7419 1.6759,52.38472 4.68376,76.2l0,0zm3.82474,25.40002c13.26363,75.3829 40.21049,127 67.69151,127c27.48102,0 54.42789,-51.6171 67.6915,-127l-135.38301,0l0,0zm-137.14627,-203.20001l111.20704,0c8.5956,-51.74335 23.75256,-94.55835 43.54222,-121.49556c-67.96864,15.19351 -124.51362,60.65393 -154.74926,121.49556l0,0zm409.67559,0c-30.23569,-60.84162 -86.78061,-106.30204 -154.74927,-121.49556c19.78967,26.93721 34.94659,69.7522 43.54221,121.49556l111.20706,0l0,0zm-272.52931,0l135.38301,0c-13.26361,-75.38288 -40.21048,-126.99999 -67.6915,-126.99999c-27.48102,0 -54.42789,51.61711 -67.69151,126.99999l0,0zm67.69151,355.60004c-140.2804,0 -254,-113.7196 -254,-254.00005c0,-140.28036 113.7196,-253.99998 254,-253.99998c140.28036,0 254,113.71962 254,253.99998c0,140.28044 -113.71964,254.00005 -254,254.00005z"/>
 </g>
</svg>