<svg width="512" height="512" xmlns="http://www.w3.org/2000/svg" version="1.1" xml:space="preserve">
 <g>
  <title>Layer 1</title>
  <ellipse stroke-width="15" ry="210.5" rx="210.5" id="svg_4" cy="262.5" cx="248.5" stroke="#000000" fill="#3a648c"/>
  <g transform="translate(1.40659 1.40659) scale(2.81 2.81)" stroke=" none" stroke-width="0" stroke-dasharray=" none" stroke-linecap=" butt" stroke-linejoin=" miter" stroke-miterlimit="10" fill=" none" fill-rule=" nonzero" id="svg_1">
   <path d="m47.0316,73.68224l18.657,0l0,60.00999l-18.657,0l0,-60.00999zm9.329,-29.82999c5.963,0 10.809,4.846 10.809,10.819c0,5.967 -4.846,10.81299 -10.809,10.81299c-5.977,0 -10.809,-4.846 -10.809,-10.81299c0,-5.973 4.832,-10.819 10.809,-10.819" stroke-linecap=" butt" stroke=" none" stroke-dasharray=" none" stroke-linejoin=" miter" stroke-miterlimit="10" fill=" rgb(0,0,0)" fill-rule=" nonzero" id="svg_2"/>
   <path d="m77.3866,73.68224l17.89,0l0,8.20601l0.255,0c2.49001,-4.72001 8.576,-9.692 17.647,-9.692c18.88698,0 22.37299,12.425 22.37299,28.58299l0,32.91299l-18.64298,0l0,-29.18299c0,-6.961 -0.121,-15.912 -9.692,-15.912c-9.706,0 -11.187,7.587 -11.187,15.412l0,29.68299l-18.643,0l0,-60.00999z" stroke-linecap=" butt" stroke=" none" stroke-dasharray=" none" stroke-linejoin=" miter" stroke-miterlimit="10" fill=" rgb(0,0,0)" fill-rule=" nonzero" id="svg_3"/>
  </g>
 </g>

</svg>